<svg width="53" height="52" viewBox="0 0 53 52" fill="none" xmlns="http://www.w3.org/2000/svg">
<g clip-path="url(#clip0_280_3761)">
<path d="M23.3453 5.67026C22.481 5.01337 21.4193 4.66981 20.3345 4.69543H8.74695C7.47683 4.69543 6.25875 5.19997 5.36065 6.09807C4.46256 6.99618 3.95801 8.21426 3.95801 9.48435V42.5182C3.95801 43.7881 4.46256 45.0064 5.36065 45.9044C6.25875 46.8024 7.47683 47.3071 8.74695 47.3071H43.3536C44.6238 47.3071 45.8419 46.8024 46.7402 45.9044C47.6382 45.0064 48.1425 43.7881 48.1425 42.5182V15.7765C48.1425 14.5064 47.6382 13.2883 46.7402 12.3902C45.8419 11.4921 44.6238 10.9876 43.3536 10.9876H25.76L25.097 8.3357C24.8345 7.27421 24.2159 6.33194 23.3453 5.67026Z" fill="#E7EAE8"/>
<path d="M35.4422 27.8611C32.7203 27.8611 30.5137 25.6544 30.5137 22.9325C30.5137 20.2105 32.7203 18.0039 35.4422 18.0039C38.1642 18.0039 40.3709 20.2105 40.3709 22.9325C40.3709 25.6544 38.1642 27.8611 35.4422 27.8611Z" fill="#B6C0BA"/>
<path fill-rule="evenodd" clip-rule="evenodd" d="M43.51 47.3044L21.1342 26.7539C20.7483 26.4387 20.2619 26.2661 19.7596 26.2661C19.2573 26.2661 18.7709 26.4387 18.385 26.7539L3.95801 36.9274V42.5181C3.95801 43.788 4.46256 45.0064 5.36065 45.9043C6.25875 46.8023 7.47683 47.307 8.74695 47.307H43.3536C43.4058 47.307 43.4581 47.306 43.51 47.3044Z" fill="#B6C0BA"/>
<g clip-path="url(#clip1_280_3761)">
<circle cx="40.0508" cy="40" r="12" fill="white"/>
<circle cx="40.0508" cy="40" r="9" fill="#6B786F"/>
<path d="M36.5205 36.4604L43.5916 43.5315" stroke="white" stroke-width="2" stroke-linecap="round"/>
<path d="M43.5918 36.4688L36.5207 43.5398" stroke="white" stroke-width="2" stroke-linecap="round"/>
</g>
</g>
<defs>
<clipPath id="clip0_280_3761">
<rect width="52" height="52" fill="white" transform="translate(0.0507812)"/>
</clipPath>
<clipPath id="clip1_280_3761">
<rect width="24.9999" height="25" fill="white" transform="translate(27.0508 27)"/>
</clipPath>
</defs>
</svg>
