<svg width="20" height="21" viewBox="0 0 20 21" fill="none" xmlns="http://www.w3.org/2000/svg">
<path fill-rule="evenodd" clip-rule="evenodd" d="M3.00001 10.5386C3.00001 6.67259 6.13401 3.53857 10 3.53857C13.866 3.53857 17 6.67259 17 10.5386C17 14.4045 13.866 17.5385 10 17.5385C8.91783 17.5385 7.8918 17.2926 6.97589 16.8533L3.59806 17.5288C3.41814 17.5648 3.23295 17.4994 3.11561 17.3583C2.99827 17.2172 2.96762 17.0232 3.03577 16.8528L4.07185 14.2626C3.39283 13.1839 3.00001 11.9064 3.00001 10.5386ZM10 7.66358C9.44772 7.66358 9 8.11129 9 8.66358C9 9.07779 8.66421 9.41358 8.25 9.41358C7.83579 9.41358 7.5 9.07779 7.5 8.66358C7.5 7.28287 8.61929 6.16358 10 6.16358C11.3807 6.16358 12.5 7.28287 12.5 8.66358C12.5 9.78299 11.7643 10.7306 10.75 11.0491V11.1636C10.75 11.5778 10.4142 11.9136 10 11.9136C9.58579 11.9136 9.25 11.5778 9.25 11.1636V10.4136C9.25 9.99937 9.58579 9.66358 10 9.66358C10.5523 9.66358 11 9.21586 11 8.66358C11 8.11129 10.5523 7.66358 10 7.66358ZM10 12.9136C10.5523 12.9136 11 13.3613 11 13.9135C11 14.4658 10.5523 14.9135 10 14.9135C9.44772 14.9135 9 14.4658 9 13.9135C9 13.3613 9.44772 12.9136 10 12.9136Z" fill="url(#paint0_linear_141_2839)"/>
<defs>
<linearGradient id="paint0_linear_141_2839" x1="18.213" y1="20.5036" x2="-0.671" y2="7.08964" gradientUnits="userSpaceOnUse">
<stop stop-color="#FFD600"/>
<stop offset="1" stop-color="#FF007A"/>
</linearGradient>
</defs>
</svg>
