<svg width="20" height="20" viewBox="0 0 20 20" fill="none" xmlns="http://www.w3.org/2000/svg">
<path fill-rule="evenodd" clip-rule="evenodd" d="M13.0829 3.00014C13.2288 2.99734 13.3725 3.0354 13.4979 3.11002C13.6233 3.18464 13.7252 3.29284 13.7923 3.4224L13.7961 3.42968L14.5824 5.0116L16.3256 5.27628C16.4704 5.29637 16.6067 5.35665 16.719 5.45033C16.833 5.54543 16.9176 5.67103 16.9628 5.81243C17.0081 5.95383 17.0121 6.10519 16.9745 6.24882C16.9372 6.39132 16.8604 6.52035 16.753 6.62107L15.5392 7.7746L15.7953 9.57662C15.8212 9.71847 15.8074 9.86485 15.7552 9.99954C15.7005 10.1406 15.6061 10.2628 15.4834 10.3513C15.3606 10.4397 15.2149 10.4907 15.0638 10.498C14.917 10.5051 14.7712 10.4706 14.6432 10.3987L13.0956 9.57939L11.5479 10.3987C11.4199 10.4706 11.2742 10.5051 11.1274 10.498C10.9763 10.4907 10.8305 10.4397 10.7078 10.3513C10.5851 10.2628 10.4907 10.1406 10.436 9.99954C10.3828 9.86235 10.3695 9.71303 10.3974 9.56873L10.6931 7.81288L9.43532 6.60864L9.42514 6.59889C9.3243 6.49674 9.25367 6.36867 9.22072 6.22897C9.18776 6.08928 9.1939 5.9432 9.23845 5.80676C9.283 5.67032 9.36425 5.54878 9.4733 5.45545C9.58234 5.36212 9.71497 5.3006 9.85666 5.27765L9.86409 5.27644L11.6091 5.02069L12.3933 3.44313C12.4555 3.3138 12.552 3.20403 12.6725 3.12589C12.7949 3.04651 12.9371 3.00295 13.0829 3.00014ZM4.5 6H7.47227C7.88649 6 8.22227 5.66421 8.22227 5.25C8.22227 4.83579 7.88649 4.5 7.47227 4.5H4.25C3.55964 4.5 3 5.05964 3 5.75V13.25C3 13.9404 3.55964 14.5 4.25 14.5H8.30572L7.94782 15.5H7C6.58579 15.5 6.25 15.8358 6.25 16.25C6.25 16.6642 6.58579 17 7 17H13C13.4142 17 13.75 16.6642 13.75 16.25C13.75 15.8358 13.4142 15.5 13 15.5H12.0521L11.6942 14.5H15.75C16.4404 14.5 17 13.9404 17 13.25V11.6335C17 11.2193 16.6642 10.8835 16.25 10.8835C15.8358 10.8835 15.5 11.2193 15.5 11.6335V13H4.5V6Z" fill="url(#paint0_linear_340_4483)"/>
<defs>
<linearGradient id="paint0_linear_340_4483" x1="16.953" y1="17.003" x2="0.374001" y2="7.677" gradientUnits="userSpaceOnUse">
<stop stop-color="#FF51E3"/>
<stop offset="1" stop-color="#1B4DFF"/>
</linearGradient>
</defs>
</svg>
