<svg width="20" height="20" viewBox="0 0 20 20" fill="none" xmlns="http://www.w3.org/2000/svg">
<path fill-rule="evenodd" clip-rule="evenodd" d="M5 3.5C4.17157 3.5 3.5 4.17157 3.5 5V7.67544C3.5 10.072 4.42056 12.307 5.97575 13.984C7.01125 15.1006 8.32809 15.9698 9.84189 16.4744C9.94452 16.5086 10.0555 16.5086 10.1581 16.4744C11.6719 15.9698 12.9888 15.1006 14.0243 13.9841C15.5794 12.307 16.5 10.0719 16.5 7.67544V5C16.5 4.17157 15.8284 3.5 15 3.5H5ZM6.88577 12.7517C7.69421 11.9764 8.79147 11.5 10 11.5C11.2085 11.5 12.3058 11.9764 13.1142 12.7517C12.2897 13.7086 11.2287 14.4693 10 14.9384C8.77128 14.4693 7.71029 13.7086 6.88577 12.7517ZM10 10C11.1046 10 12 9.10457 12 8C12 6.89543 11.1046 6 10 6C8.89543 6 8 6.89543 8 8C8 9.10457 8.89543 10 10 10Z" fill="url(#paint0_linear_340_4483)"/>
<defs>
<linearGradient id="paint0_linear_340_4483" x1="16.456" y1="16.5031" x2="1.061" y2="7.84306" gradientUnits="userSpaceOnUse">
<stop stop-color="#FF51E3"/>
<stop offset="1" stop-color="#1B4DFF"/>
</linearGradient>
</defs>
</svg>
