<svg width="52" height="52" viewBox="0 0 52 52" fill="none" xmlns="http://www.w3.org/2000/svg">
<g clip-path="url(#clip0_280_3784)">
<path d="M23.2955 5.66977C22.4311 5.01288 21.3695 4.66932 20.2847 4.69494H8.69715C7.42702 4.69494 6.20895 5.19948 5.31085 6.09758C4.41275 6.99569 3.9082 8.21377 3.9082 9.48386V42.5177C3.9082 43.7876 4.41275 45.006 5.31085 45.9039C6.20895 46.8019 7.42702 47.3066 8.69715 47.3066H43.3038C44.574 47.3066 45.7921 46.8019 46.6904 45.9039C47.5884 45.006 48.0927 43.7876 48.0927 42.5177V15.776C48.0927 14.5059 47.5884 13.2878 46.6904 12.3897C45.7921 11.4916 44.574 10.9871 43.3038 10.9871H25.7102L25.0472 8.33521C24.7847 7.27373 24.1661 6.33145 23.2955 5.66977Z" fill="#E7EAE8"/>
<path d="M6.3068 47.3066C6.3068 47.3066 3.9082 47.3066 3.9082 44.908C3.9082 42.5094 6.3068 35.3136 18.2998 35.3136C30.2928 35.3136 32.6914 42.5094 32.6914 44.908C32.6914 47.3066 30.2928 47.3066 30.2928 47.3066H6.3068ZM18.2998 32.915C20.2083 32.915 22.0385 32.1569 23.388 30.8074C24.7375 29.458 25.4956 27.6277 25.4956 25.7192C25.4956 23.8108 24.7375 21.9805 23.388 20.631C22.0385 19.2816 20.2083 18.5234 18.2998 18.5234C16.3914 18.5234 14.5611 19.2816 13.2116 20.631C11.8621 21.9805 11.104 23.8108 11.104 25.7192C11.104 27.6277 11.8621 29.458 13.2116 30.8074C14.5611 32.1569 16.3914 32.915 18.2998 32.915Z" fill="#B6C0BA"/>
</g>
<g clip-path="url(#clip1_280_3784)">
<circle cx="40" cy="40" r="12" fill="white"/>
<circle cx="40" cy="40" r="9" fill="#6B786F"/>
<path d="M36.4697 36.4604L43.5408 43.5315" stroke="white" stroke-width="2" stroke-linecap="round"/>
<path d="M43.541 36.4688L36.4699 43.5398" stroke="white" stroke-width="2" stroke-linecap="round"/>
</g>
<defs>
<clipPath id="clip0_280_3784">
<rect width="44.1845" height="42.613" fill="white" transform="translate(3.9082 4.6936)"/>
</clipPath>
<clipPath id="clip1_280_3784">
<rect width="24.9999" height="25" fill="white" transform="translate(27 27)"/>
</clipPath>
</defs>
</svg>
