<svg width="20" height="20" viewBox="0 0 20 20" fill="none" xmlns="http://www.w3.org/2000/svg">
<rect x="4.28711" y="7" width="11" height="8" fill="#3FA461"/>
<path fill-rule="evenodd" clip-rule="evenodd" d="M10.75 4.75C10.75 4.33579 10.4142 4 10 4C9.58579 4 9.25 4.33579 9.25 4.75V5.5H4.35767C3.60785 5.5 3 6.10785 3 6.85767V14.6424C3 15.3922 3.60785 16 4.35767 16H15.6423C16.3921 16 17 15.3922 17 14.6424V6.85767C17 6.10785 16.3922 5.5 15.6423 5.5H10.75V4.75ZM11.875 9C11.875 8.65482 12.1548 8.375 12.5 8.375H14.5C14.8452 8.375 15.125 8.65482 15.125 9C15.125 9.34518 14.8452 9.625 14.5 9.625H12.5C12.1548 9.625 11.875 9.34518 11.875 9ZM11.875 11.5C11.875 11.1548 12.1548 10.875 12.5 10.875H14.5C14.8452 10.875 15.125 11.1548 15.125 11.5C15.125 11.8452 14.8452 12.125 14.5 12.125H12.5C12.1548 12.125 11.875 11.8452 11.875 11.5ZM7.29199 12.5C8.59821 12.5 9.70945 13.3348 10.1213 14.5H4.5V14.4002C4.93869 13.2875 6.02338 12.5 7.29199 12.5ZM5.54199 10.25C5.54199 9.2835 6.32549 8.5 7.29199 8.5C8.25849 8.5 9.04199 9.2835 9.04199 10.25C9.04199 11.2165 8.25849 12 7.29199 12C6.32549 12 5.54199 11.2165 5.54199 10.25Z" fill="url(#paint0_linear_340_4477)"/>
<defs>
<linearGradient id="paint0_linear_340_4477" x1="3.538" y1="4.97006" x2="18.216" y2="14.6221" gradientUnits="userSpaceOnUse">
<stop stop-color="#DCF5E4"/>
<stop offset="1" stop-color="#DCF5E4"/>
</linearGradient>
</defs>
</svg>
